<svg width="512" height="512" viewBox="0 0 512 512" fill="none" xmlns="http://www.w3.org/2000/svg">
<rect width="512" height="512" rx="40" fill="black"/>
<g clip-path="url(#clip0_451_829)">
<path fill-rule="evenodd" clip-rule="evenodd" d="M139.082 124.563V34L190.98 34V112.872L209.666 129.401C223.565 119.585 238.744 114.184 254.639 114.184C270.755 114.184 286.134 119.736 300.19 129.812L319.34 112.872V34H371.239V124.563V136.254L362.483 143.999L335.111 168.211C338.604 173.704 341.913 179.55 345.021 185.715L360.952 181.716L395.732 137.967L436.357 170.263L396.107 220.893L390.637 227.774L382.112 229.914L363.512 234.582C364.439 237.969 365.316 241.406 366.142 244.889L395.153 250.415L400.914 251.513L405.643 254.981L483.491 312.069L452.8 353.921L379.681 300.3L374.406 299.295C375.055 308.215 375.39 317.308 375.39 326.538C375.39 327.616 375.385 328.687 375.376 329.75L407.433 344.035L417.053 348.322L420.964 358.1L461.214 458.726L413.028 478.001L376.689 387.153L369.915 384.135C354.581 454.947 308.77 476.436 254.639 476.436C200.749 476.436 155.103 455.137 139.569 385.074L134.902 387.153L98.5633 478.001L50.3766 458.726L90.6269 358.1L94.5382 348.322L104.158 344.035L133.912 330.776C133.896 329.376 133.888 327.963 133.888 326.538C133.888 317.404 134.216 308.405 134.853 299.574L131.041 300.3L57.922 353.921L27.231 312.069L105.079 254.981L109.808 251.513L115.569 250.415L143.068 245.177C143.942 241.478 144.873 237.832 145.859 234.242L128.616 229.914L120.09 227.774L114.62 220.893L74.3701 170.263L114.995 137.967L149.776 181.716L164.42 185.392C167.593 179.125 170.973 173.19 174.543 167.622L147.838 143.999L139.082 136.254V124.563Z" fill="#65CC54"/>
</g>
<defs>
<clipPath id="clip0_451_829">
<rect width="444" height="444" fill="white" transform="translate(34 34)"/>
</clipPath>
</defs>
</svg>
